<svg xmlns="http://www.w3.org/2000/svg" viewBox="0 0 64 64">
  <defs>
    <linearGradient id="g" x1="0" y1="0" x2="1" y2="1">
      <stop offset="0" stop-color="#22d3ee"/>
      <stop offset="1" stop-color="#a78bfa"/>
    </linearGradient>
  </defs>
  <rect width="64" height="64" rx="12" ry="12" fill="#0b1220"/>
  <path d="M16 12h32l-4 36a6 6 0 0 1-6 5H26a6 6 0 0 1-6-5L16 12z" fill="#0f172a" stroke="#1f2937" stroke-width="2"/>
  <!-- liquido (negroni) -->
  <path d="M20 26h24l-2.5 20a4 4 0 0 1-4 3.5H26.5a4 4 0 0 1-4-3.5L20 26z" fill="#d9480f"/>
  <path d="M20 26c4 3 11 5 24 0" fill="none" stroke="#ffb089" stroke-opacity=".55" stroke-width="2"/>
  <!-- cubetto arancia -->
  <rect x="36" y="18" width="10" height="8" rx="2" fill="#f59e0b" transform="rotate(10 41 22)"/>
  <!-- bordo superiore con gradiente -->
  <path d="M16 12h32" stroke="url(#g)" stroke-width="3" stroke-linecap="round"/>
</svg>
